<?xml version="1.0" encoding="UTF-8"?>
<svg width="1144px" height="864px" viewBox="0 0 1144 864" version="1.1" xmlns="http://www.w3.org/2000/svg" xmlns:xlink="http://www.w3.org/1999/xlink">
    <!-- Generator: Sketch 51 (57462) - http://www.bohemiancoding.com/sketch -->
    <title>Group 2</title>
    <desc>Created with Sketch.</desc>
    <defs>
        <linearGradient x1="50.0005261%" y1="100%" x2="50.0005261%" y2="0%" id="linearGradient-1">
            <stop stop-color="#808080" stop-opacity="0.25" offset="0%"></stop>
            <stop stop-color="#808080" stop-opacity="0.12" offset="54%"></stop>
            <stop stop-color="#808080" stop-opacity="0.1" offset="100%"></stop>
        </linearGradient>
        <linearGradient x1="45.2606224%" y1="100.101185%" x2="53.1520444%" y2="-1.05136561%" id="linearGradient-2">
            <stop stop-color="#808080" stop-opacity="0.25" offset="0%"></stop>
            <stop stop-color="#808080" stop-opacity="0.12" offset="54%"></stop>
            <stop stop-color="#808080" stop-opacity="0.1" offset="100%"></stop>
        </linearGradient>
    </defs>
    <g id="Page-1" stroke="none" stroke-width="1" fill="none" fill-rule="evenodd">
        <g id="Group-2" fill-rule="nonzero">
            <g id="bubble">
                <ellipse id="Oval" fill="#D7E7FD" opacity="0.1" cx="140.04" cy="839.19" rx="100.11" ry="24.73"></ellipse>
                <path d="M591.97,138.46 C520.57,150.37 449.06,143.96 380.22,135.08 C311.38,126.2 242.7,114.86 171.15,117.08 C125.15,118.52 73.98,127.56 42.15,155.3 C11.53,181.99 7.15,218.48 7.44,251.48 C7.66,276.3 9.99,302.01 26.8,321.97 C38.47,335.82 56.31,345.88 69.8,358.69 C116.8,403.27 103.47,472.33 73.71,530.81 C59.71,558.25 42.6,585.18 33.21,613.31 C23.82,641.44 22.89,671.74 40.57,695.03 C58.11,718.12 91.66,731.42 126.57,738.55 C197.46,753.02 276.14,745.55 352.24,735.16 C520.68,712.05 687.24,674.67 853.32,637.36 C914.79,623.56 976.53,609.68 1035.67,589.36 C1068.51,578.1 1101.92,563.93 1122.95,541.52 C1149.64,513.07 1149.88,473.8 1123.51,449.98 C1079.27,409.98 980.3,417.5 945.91,371.98 C926.97,346.98 934.68,313.36 949.15,283.81 C980.15,220.41 1040.9,158.16 1032.15,94.45 C1026.15,50.69 983.77,14.05 927.47,3.92 C868.47,-6.69 793.06,11.03 759.69,54.54 C725.33,99.46 655.01,127.96 591.97,138.46 Z" id="Shape" fill="#D7E7FD"></path>
                <rect id="Rectangle-path" fill="url(#linearGradient-1)" x="76.29" y="151.11" width="950.33" height="538.33" rx="12.49"></rect>
                <rect id="Rectangle-path" fill="#FFFFFF" x="77.8" y="158.68" width="947.42" height="528.97" rx="12.49"></rect>
                <rect id="Rectangle-path" fill="#FFFFFF" x="77.8" y="158.68" width="947.42" height="528.97" rx="12.49"></rect>
                <rect id="Rectangle-path" fill="#5A5773" opacity="0.04" x="77.8" y="158.68" width="947.42" height="528.97" rx="12.49"></rect>
                <path d="M1020.41,152.61 L82.57,152.61 C79.9135104,152.61 77.76,154.76351 77.76,157.42 L77.76,177.76 L1025.18017,177.76 L1025.18,157.46 C1025.19065,156.184296 1024.69408,154.956613 1023.79952,154.047052 C1022.90496,153.137491 1021.68571,152.620565 1020.41,152.61 Z" id="Shape" fill="#5A5773"></path>
                <g id="83eb5f8b-b68b-4721-b047-6100bc74156f" transform="translate(90.000000, 158.000000)" fill="#FFFFFF">
                    <circle id="Oval" cx="6.72" cy="7.18" r="6.5"></circle>
                    <circle id="Oval" cx="24.22" cy="7.18" r="6.5"></circle>
                    <circle id="Oval" cx="41.72" cy="7.18" r="6.5"></circle>
                </g>
                <rect id="Rectangle-path" fill="#FFFFFF" x="141.22" y="294.86" width="790" height="392.78" rx="10.19"></rect>
                <rect id="Rectangle-path" fill="#5A5773" opacity="0.2" x="704" y="213" width="227.24" height="60.53" rx="3.86"></rect>
                <rect id="Rectangle-path" fill="#D7E7FD" x="536.22" y="340.45" width="227.24" height="23.85" rx="3.86"></rect>
                <rect id="Rectangle-path" fill="#D7E7FD" x="536.22" y="407.23" width="354.83" height="23.85" rx="3.86"></rect>
                <rect id="Rectangle-path" fill="#D7E7FD" x="536.22" y="446.23" width="354.83" height="23.85" rx="3.86"></rect>
                <rect id="Rectangle-path" fill="#D7E7FD" x="536.22" y="485.23" width="354.83" height="23.85" rx="3.86"></rect>
                <rect id="Rectangle-path" fill="#D7E7FD" x="536.22" y="524.23" width="354.83" height="23.85" rx="3.86"></rect>
                <rect id="Rectangle-path" fill="#D7E7FD" x="184.05" y="567.23" width="707" height="23.85" rx="3.86"></rect>
                <rect id="Rectangle-path" fill="#D7E7FD" x="184.05" y="606.23" width="707" height="23.85" rx="3.86"></rect>
                <rect id="Rectangle-path" fill="#D7E7FD" x="184.05" y="645.23" width="707" height="23.85" rx="3.86"></rect>
                <rect id="Rectangle-path" fill="#D7E7FD" x="184.05" y="327.22" width="302" height="221.54" rx="8.5"></rect>
                <rect id="Rectangle-path" fill="#FFFFFF" x="0" y="483.59" width="426.61" height="208.22" rx="6.61"></rect>
                <rect id="Rectangle-path" fill="#5A5773" opacity="0.1" x="0" y="483.59" width="426.61" height="208.22" rx="6.61"></rect>
                <rect id="Rectangle-path" fill="#FFFFFF" x="21.76" y="494.21" width="383.08" height="186.98" rx="6.61"></rect>
                <rect id="Rectangle-path" fill="#D7E7FD" x="77.51" y="531.72" width="262.81" height="38.52" rx="6.03"></rect>
                <rect id="Rectangle-path" fill="#D7E7FD" x="87.15" y="584.32" width="243.53" height="7.86"></rect>
                <rect id="Rectangle-path" fill="#D7E7FD" x="45.75" y="600.91" width="335.1" height="7.86"></rect>
                <rect id="Rectangle-path" fill="#D7E7FD" x="45.75" y="618.37" width="335.1" height="7.86"></rect>
                <rect id="Rectangle-path" fill="#D7E7FD" x="45.75" y="635.83" width="335.1" height="7.86"></rect>
                <path d="M104.27,841.64 C105.46,837.3 106.27,833.48 106.27,833.48 C106.292249,830.579069 107.056492,827.732092 108.49,825.21 L108.49,824.01 L108.83,815.2 C108.301279,813.578154 107.632076,812.005525 106.83,810.5 C105.35,807.67 107.33,797.58 107.33,797.58 C107.33,797.58 113.76,783.51 112.68,774.38 C111.6,765.25 126.3,734.55 126.3,734.55 C126.339209,731.524658 126.030516,728.504837 125.38,725.55 C125.261842,724.934107 125.228199,724.304981 125.28,723.68 C125.275014,723.603414 125.275014,723.526586 125.28,723.45 L125.28,723.52 C125.71,717.52 130.87,706.52 130.87,706.52 L131.06,685.12 C131.06,685.12 128.52,672.4 134.06,655.67 C136.01,649.83 137.29,645.15 138.13,641.53 C138.23,641.12 138.32,640.73 138.4,640.35 C128.32,638.41 120.62,636.83 120.62,636.83 C120.62,636.83 127.45,612.45 131.62,608.3 C135.79,604.15 139.45,590.73 139.45,590.73 C139.45,590.73 142.19,573.43 139.05,568.23 C135.91,563.03 135.77,554.23 135.77,554.23 C135.77,554.23 128.35,548.4 127.49,545.91 C126.63,543.42 125.26,537.81 125.37,534.91 C125.48,532.01 126.54,529.41 126.28,527.86 C126.02,526.31 128.79,520.57 127.62,517.75 C127.328948,516.883969 127.193524,515.973247 127.22,515.06 C127.22,515.06 127.22,515.06 127.22,514.98 C127.303119,512.558227 127.62128,510.150254 128.17,507.79 C130.443275,506.012792 133.067713,504.738065 135.87,504.05 L136.06,503.39 L136.56,501.68 C136.805859,501.526882 137.059537,501.386692 137.32,501.26 L137.37,500.63 L137.53,498.14 L136.57,492.46 C134.57,482.6 147.69,481.65 147.69,481.65 C148.534582,480.182457 149.891373,479.078507 151.5,478.55 C154.16,477.73 151.38,493.26 150.11,494.21 C149.11,494.92 146.11,499.71 144.66,502.06 L144.42,502.45 C144.630523,502.650693 144.824487,502.868067 145,503.1 L144.37,506.47 L144.27,506.98 C145.095486,508.087196 145.752602,509.310443 146.22,510.61 C146.22,510.61 143.73,513.13 144.1,516.07 C144.207844,518.357036 143.868157,520.643128 143.1,522.8 C143.24,522.65 144.99,520.9 146.65,521.4 C148.31,521.9 152.93,523.49 152.93,523.49 C152.93,523.49 156.4,524.24 156.05,525 C155.7,525.76 158.28,529.24 158.28,529.24 L168.01,520.71 C168.12,520.44 168.22,520.18 168.32,519.91 C168.768249,518.652456 169.10292,517.357278 169.32,516.04 C168.294262,515.760088 167.291356,515.402385 166.32,514.97 C165.344715,514.595001 164.47366,513.991436 163.78,513.21 C162.88,512.05 162.78,510.51 162.43,509.1 C161.79,506.34 160.29,503.84 159.24,501.19 C157.478632,496.743894 157.013997,491.889497 157.9,487.19 C158.113621,485.750007 158.661593,484.380078 159.5,483.19 C161.12,481.14 163.93,480.39 166.02,478.79 C168.11,477.19 169.51,474.66 171.91,473.49 C174.09,472.43 176.68,472.67 179.07,473.15 C183.711199,474.096906 188.13621,475.897428 192.12,478.46 C193.46,479.33 194.93,480.33 196.52,480.1 C197.839502,479.748977 199.002118,478.96333 199.82,477.87 C199.815576,477.823438 199.815576,477.776562 199.82,477.73 L199.93,477.62 C200.838415,479.86473 201.241291,482.281986 201.11,484.7 C201.11,485.07 201.11,485.45 201.03,485.82 C201.03,485.95 201.03,486.08 201.03,486.21 C201.020007,486.319773 201.020007,486.430227 201.03,486.54 C201.025315,486.705418 201.045541,486.8706 201.09,487.03 C201.265534,487.523089 201.549122,487.970679 201.92,488.34 C202.191743,488.674249 202.432723,489.032372 202.64,489.41 C202.64,489.28 202.57,489.15 202.53,489.02 C203.096168,489.917849 203.394505,490.958558 203.39,492.02 C203.413058,492.793666 203.129051,493.545026 202.6,494.11 C202.11669,494.558276 201.58704,494.953837 201.02,495.29 C202.057133,502.727634 198.354707,510.024765 191.74,513.58 C191.62,513.84 191.5,514.11 191.39,514.38 C189.901591,517.558224 189.182191,521.042173 189.29,524.55 C189.29,524.8 189.29,525.05 189.37,525.3 C189.45,525.55 189.6,525.57 189.7,525.71 C189.7,525.71 205.2,526.46 208.98,523.29 C212.76,520.12 217.88,531.72 217.88,531.72 C217.88,531.72 223.4,533.01 224.55,531.98 C225.7,530.95 232.19,532.12 232.19,532.12 C234.940309,529.851536 238.452444,528.717782 242.01,528.95 C244.24591,527.383699 246.693927,526.144538 249.28,525.27 L249.46,525.21 C250.591321,524.841673 251.791634,524.735662 252.97,524.9 C252.97,524.9 260.84,518.9 263.19,515.59 C265.54,512.28 276.57,500.15 276.57,500.09 L276.64,499.49 L276.83,497.67 C277.139761,497.734235 277.454036,497.774355 277.77,497.79 L278.01,497.16 C278.685953,495.402336 279.505385,493.70327 280.46,492.08 C280.46,492.08 280.55,489.77 279.9,489.17 C279.25,488.57 280.53,480.17 280.53,480.17 C280.53,480.17 288.02,464.37 293.71,476.6 C293.71,476.6 305.05,484.81 294.93,493.47 C294.93,493.47 290.93,495.21 290.36,496.68 C289.96,497.68 288.53,500.3 287.57,502.07 L287.14,502.86 L287.25,502.96 L287.05,504.46 L286.97,505.05 C288.76,506.16 289.97,507.24 289.64,508.05 C289.04434,509.360696 288.617591,510.74175 288.37,512.16 C288.37,512.16 274.23,528.46 272.21,535.65 C272.21,535.65 235.15,555.79 223.21,556.87 L224.86,567.71 C225.055761,570.635727 225.102488,573.569522 225,576.5 C224.75,578.8 225.94,589.31 225.94,589.31 C225.94,589.31 227.41,604.77 229.08,606.99 C230.75,609.21 230.08,618.43 230.08,618.43 C230.330595,622.862216 230.959551,627.264906 231.96,631.59 C233.48,637.5 231.96,644.68 231.96,644.68 C231.96,644.68 237.47,658.75 223.37,648.81 C223.37,648.81 216.29,648.1 208.13,647.51 C208.13,647.77 208.13,648.05 208.13,648.32 C208.13,649.38 208.08,650.52 208.05,651.72 C207.85,659.65 207.48,670.57 206.8,678.82 C205.6,693.41 200.04,722.15 200.04,722.15 L199.48,736.67 C199.717781,738.046441 199.804962,739.444683 199.74,740.84 C199.645786,745.963669 198.095402,750.954726 195.27,755.23 L193.78,764.88 C193.78,764.88 190.93,771.16 190.73,774.97 C190.724643,775.281925 190.751451,775.593572 190.81,775.9 C190.883323,776.393054 190.906775,776.892243 190.88,777.39 C190.88,781.79 187.8,792.21 187.8,792.21 C187.8,792.21 187.23,802.82 185.62,803.37 C184.24,803.85 187.2,809.56 188.08,811.2 C188.112752,811.102434 188.13619,811.001986 188.15,810.9 L188.34,811.22 C188.634294,812.091963 188.766473,813.010436 188.73,813.93 C188.851559,815.416076 188.108571,816.839812 186.82,817.59 C183.73,819.32 182.05,820.79 184.59,821.51 C185.527746,821.69281 186.455606,821.923106 187.37,822.2 L187.52,821.85 C188.258953,822.169056 188.67537,822.960248 188.52,823.75 C188.450543,825.007466 188.076471,826.229204 187.43,827.31 C186.198442,830.039075 184.654815,832.616261 182.83,834.99 L181.61,834.81 C181.775024,835.278554 181.996665,835.725195 182.27,836.14 C182.707536,836.82827 183.304354,837.401078 184.01,837.81 C184.658651,838.228974 185.387464,838.508238 186.15,838.63 C187.892438,838.758556 189.498681,839.619822 190.57,841 C192.07,843.11 192.96,845.94 189.73,848.27 L178.22,851.75 C178.22,851.75 158.58,853.54 159.78,849.2 C160.98,844.86 161.78,841.04 161.78,841.04 C161.801054,838.355886 162.444595,835.713262 163.66,833.32 C163.882099,832.931003 164.129288,832.556878 164.4,832.2 L163.71,832.1 C163.71,832.1 162.57,822.35 160.69,820.46 C160.27,820.01 160.18,819.68 160.29,819.46 C160.12,818.93 160.62,818.64 161.29,818.46 C161.29,818.58 161.38,818.71 161.42,818.84 C162.047498,818.734125 162.683929,818.69058 163.32,818.71 C163.32,818.71 164.15,813.66 162.16,811.71 C161.834657,811.275203 161.710908,810.721973 161.82,810.19 C161.824133,809.493456 161.921669,808.800613 162.11,808.13 C162.12957,808.17208 162.153004,808.212252 162.18,808.25 C163.4,803.69 167.18,796.51 167.18,796.51 C167.18,796.51 167.51,791.9 166.31,790 C165.11,788.1 167.44,764.94 167.44,764.94 C167.44,764.94 167.39,753.7 169.02,748.53 C170.65,743.36 167.71,737.08 167.71,737.08 C167.71,737.08 167.71,736.96 167.76,736.75 C167.763303,736.720091 167.763303,736.689909 167.76,736.66 C167.76,736.66 167.86,735.97 168.02,734.9 L168.02,735.01 C168.46,732.01 169.27,726.7 169.81,724.22 C170.58,720.71 170.44,703.76 170.44,703.76 L167.85,696.46 L162.28,708.72 L156.28,725.12 C156.28,725.12 153.47,728.52 153.28,732.12 C153.28,732.3 153.28,732.47 153.28,732.65 C153.304709,733.019587 153.304709,733.390413 153.28,733.76 C153.288286,735.859829 152.63003,737.908126 151.4,739.61 C151.4,739.61 149.67,747.4 147.4,749.31 C145.13,751.22 144.95,755.07 144.95,755.07 C144.95,755.07 141.81,766.35 140.46,768.3 C139.33,769.94 139.09,774.57 139.05,775.99 C139.05,776.25 139.05,776.4 139.05,776.4 C139.05,776.4 138.52,780.46 138.4,783.88 C138.4,784.3 138.4,784.71 138.4,785.09 C138.395111,785.063557 138.395111,785.036443 138.4,785.01 C138.361982,785.938815 138.435846,786.868831 138.62,787.78 C138.62,787.78 138.62,787.89 138.62,787.95 L138.62,787.37 C139.095054,789.711738 139.279779,792.103085 139.17,794.49 C139.08,798.58 138.27,803.4 135.68,806.15 C131.2,810.91 128.53,810.15 128.53,810.15 C128.53,810.15 130.36,816.38 132.85,817.71 C132.945903,817.760635 133.036374,817.820949 133.12,817.89 C133.12,817.77 133.12,817.65 133.19,817.54 C133.724889,818.186939 133.964267,819.028387 133.85,819.86 C133.93,822.57 132.05,826.86 130.35,828.86 C129.731069,829.431552 128.977753,829.837448 128.16,830.04 C128.284481,830.134672 128.414733,830.221506 128.55,830.3 C128.827362,830.464183 129.114572,830.611128 129.41,830.74 C129.813397,830.936773 130.245417,831.068404 130.69,831.13 C132.435711,831.247229 134.046304,832.110827 135.11,833.5 C136.61,835.6 137.5,838.43 134.27,840.76 L122.76,844.24 C122.76,844.24 103.06,845.98 104.27,841.64 Z" id="Shape" fill="url(#linearGradient-2)"></path>
                <path d="M178.62,851.77 L189.77,848.28 C192.9,845.94 192.04,843.11 190.59,841 C189.577193,839.631775 188.017807,838.773565 186.32,838.65 C185.574785,838.52707 184.865122,838.243887 184.24,837.82 C183.559121,837.407503 182.986579,836.838389 182.57,836.16 C181.818505,834.854033 181.44137,833.366255 181.48,831.86 C181.48,831.86 169.54,827.86 166.1,831.27 C165.491894,831.88925 164.976558,832.593205 164.57,833.36 C163.389945,835.76439 162.761335,838.401821 162.73,841.08 C162.73,841.08 161.97,844.89 160.8,849.24 C159.63,853.59 178.62,851.77 178.62,851.77 Z" id="Shape" fill="#2D293D"></path>
                <path d="M125.01,844.28 L136.16,840.79 C139.29,838.45 138.43,835.62 136.98,833.52 C135.96695,832.145461 134.403075,831.283137 132.7,831.16 C132.268474,831.102879 131.849436,830.974464 131.46,830.78 C131.174566,830.646767 130.8974,830.496496 130.63,830.33 C127.63,828.52 127.86,824.33 127.86,824.33 C127.86,824.33 115.92,820.33 112.48,823.74 C112.018551,824.20015 111.609398,824.709914 111.26,825.26 C109.862342,827.800923 109.119972,830.650114 109.1,833.55 C109.1,833.55 108.33,837.37 107.17,841.71 C106.01,846.05 125.01,844.28 125.01,844.28 Z" id="Shape" fill="#2D293D"></path>
                <path d="M166.09,831.27 C165.48543,831.889918 164.973486,832.593839 164.57,833.36 L182.57,836.15 C181.818505,834.844033 181.44137,833.356255 181.48,831.85 C181.48,831.85 169.57,827.86 166.09,831.27 Z" id="Shape" fill="#000000" opacity="0.1"></path>
                <path d="M111.26,825.3 L111.13,828.69 C113.77,833.44 127.42,832.95 131.46,830.78 C131.174566,830.646767 130.8974,830.496496 130.63,830.33 C127.63,828.52 127.86,824.33 127.86,824.33 C127.86,824.33 115.92,820.33 112.48,823.74 C112.016186,824.212662 111.606952,824.735945 111.26,825.3 Z" id="Shape" fill="#000000" opacity="0.1"></path>
                <path d="M109.67,810.62 C110.464533,812.129119 111.13346,813.701097 111.67,815.32 L111.18,827.46 C114.06,832.66 130.12,831.58 132.38,828.9 C134.64,826.22 137.22,819.07 134.81,817.75 C132.4,816.43 130.63,810.19 130.63,810.19 C130.63,810.19 133.22,810.91 137.57,806.19 C141.92,801.47 141.1,790.46 140.42,787.82 C139.74,785.18 140.87,776.44 140.87,776.44 C140.87,776.44 140.95,770.28 142.26,768.33 C143.57,766.38 146.62,755.1 146.62,755.1 C146.62,755.1 146.76,751.25 148.99,749.34 C151.22,747.43 152.91,739.63 152.91,739.63 C154.247744,737.7201 154.880474,735.404802 154.7,733.08 C154.39,729.22 157.62,725.18 157.62,725.18 L163.49,708.78 L168.89,696.51 L171.38,703.84 C171.38,703.84 171.5,720.79 170.75,724.3 C170,727.81 168.75,737.16 168.75,737.16 C168.75,737.16 171.59,743.43 170.01,748.61 C168.43,753.79 168.45,765.02 168.45,765.02 C168.45,765.02 166.17,788.19 167.33,790.08 C168.49,791.97 168.16,796.58 168.16,796.58 C168.16,796.58 161.34,809.87 163.26,811.8 C165.18,813.73 164.38,818.8 164.38,818.8 C164.38,818.8 160.08,818.63 161.85,820.55 C163.62,822.47 164.57,832.14 164.57,832.14 L183.08,835.01 C184.85367,832.624221 186.349971,830.044276 187.54,827.32 C190.22,821.73 187.28,822.23 184.83,821.52 C182.38,820.81 184,819.33 186.99,817.6 C189.98,815.87 188.45,811.65 188.45,811.65 C188.45,811.65 184.28,803.94 185.85,803.39 C187.42,802.84 187.97,792.23 187.97,792.23 C187.97,792.23 191.53,779.73 190.89,776.32 C190.25,772.91 193.8,764.88 193.8,764.88 L195.24,755.24 C198.745904,749.873049 200.198118,743.421527 199.33,737.07 L199.91,722.15 C199.91,722.15 205.35,693.46 206.57,678.82 C207.33,669.48 207.71,656.71 207.88,648.74 C207.98,644.26 208.02,641.3 208.02,641.3 L141.85,631.82 C141.619864,635.13489 141.087656,638.421857 140.26,641.64 C139.45,645.27 138.2,649.95 136.26,655.79 C130.84,672.52 133.26,685.24 133.26,685.24 L133.05,706.64 C133.05,706.64 126.65,720.72 127.7,725.69 C128.327228,728.647922 128.622389,731.666605 128.58,734.69 C128.58,734.69 114.34,765.37 115.38,774.46 C116.42,783.55 110.17,797.67 110.17,797.67 C110.17,797.67 108.24,807.79 109.67,810.62 Z" id="Shape" fill="#575988"></path>
                <path d="M150.74,731.96 L130.62,728.46 C130.62,728.46 141.63,740.62 150.74,731.96 Z" id="Shape" fill="#000000" opacity="0.05"></path>
                <path d="M134.3,708.85 C134.3,708.85 133.3,715.97 137.61,718.85 C137.57,718.83 129.82,717.3 134.3,708.85 Z" id="Shape" fill="#000000" opacity="0.1"></path>
                <path d="M136.42,686.13 C136.42,686.13 152.79,700.7 158.98,699.79 C165.17,698.88 136.42,686.13 136.42,686.13 Z" id="Shape" fill="#000000" opacity="0.1"></path>
                <path d="M175.57,739.46 C175.57,739.46 188.3,742.88 188.49,748.04 C188.68,753.2 175.57,739.46 175.57,739.46 Z" id="Shape" fill="#000000" opacity="0.1"></path>
                <path d="M170.26,803.46 C170.26,803.46 188.26,807.54 183.04,809.65 C177.82,811.76 169.27,813.28 169.27,813.28 C169.27,813.28 163.41,813.38 170.26,803.46 Z" id="Shape" fill="#000000" opacity="0.05"></path>
                <g id="Group" opacity="0.05" transform="translate(109.000000, 640.000000)" fill="#000000">
                    <path d="M77.57,173.46 C78.513619,172.916735 79.1606611,171.975583 79.33,170.9 L79.5,171.23 C79.5,171.23 81.04,175.44 78.04,177.23 C77.7,177.42 77.38,177.62 77.04,177.81 C76.51,177.69 75.93,177.59 75.38,177.43 C72.94,176.68 74.57,175.2 77.57,173.46 Z" id="Shape"></path>
                    <path d="M54.23,171.34 C53.75,170.86 53.82,169.68 54.23,168.17 C54.9187661,169.564484 55.2160053,171.119805 55.09,172.67 C54.9087259,172.166777 54.6145274,171.711796 54.23,171.34 Z" id="Shape"></path>
                    <path d="M59.97,94.94 C60.5667015,96.7877036 60.9032653,98.7094826 60.97,100.65 C60.6757758,99.2997134 60.2538787,97.9804479 59.71,96.71 C59.71,96.71 59.82,96.02 59.97,94.94 Z" id="Shape"></path>
                    <path d="M18.74,85.27 C18.6382488,84.7127979 18.6013365,84.1456906 18.63,83.58 C18.82,84.74 18.94,85.81 19.01,86.75 C18.93,86.27 18.84,85.78 18.74,85.27 Z" id="Shape"></path>
                    <path d="M58.3,149.63 C57.9994446,148.513113 57.8912319,147.353209 57.98,146.2 C58.495359,147.587305 58.7397766,149.060599 58.7,150.54 C58.602895,150.222 58.4686348,149.916558 58.3,149.63 Z" id="Shape"></path>
                    <path d="M53.38,178.46 C54.217603,181.584676 54.8028189,184.771595 55.13,187.99 L73.64,190.86 C75.4201589,188.476691 76.9200324,185.896372 78.11,183.17 C78.35,182.68 78.53,182.24 78.69,181.84 C79.78,182.39 80.18,183.57 78.58,186.89 C77.3888337,189.610569 75.8925815,192.187075 74.12,194.57 L55.57,191.72 C55.57,191.72 54.57,181.98 52.78,180.07 C51.95,179.12 52.57,178.69 53.38,178.46 Z" id="Shape"></path>
                    <path d="M79.01,151.81 C79.01,151.81 78.45,162.42 76.89,162.97 C76.18,161.18 75.72,159.5 76.42,159.25 C77.98,158.69 78.55,148.09 78.55,148.09 C78.55,148.09 82.11,135.6 81.47,132.18 C80.83,128.76 84.37,120.75 84.37,120.75 L85.82,111.1 C89.3259044,105.733049 90.7781183,99.281527 89.91,92.93 L90.48,78.01 C90.48,78.01 95.9,49.27 97.08,34.68 C97.83,25.34 98.21,12.57 98.39,4.6 C98.39,3.16 98.45,1.88 98.47,0.8 L99,0.88 C99,0.88 99,3.88 98.86,8.31 C98.69,16.31 98.31,29.06 97.55,38.4 C96.37,52.98 90.96,81.73 90.96,81.73 L90.38,96.64 C91.2483243,102.990195 89.7998961,109.440671 86.3,114.81 L84.84,124.46 C84.84,124.46 81.29,132.46 81.93,135.9 C82.57,139.34 79.01,151.81 79.01,151.81 Z" id="Shape"></path>
                    <path d="M22.92,184.77 C24.5110774,182.640501 25.6107458,180.18503 26.14,177.58 C27.97,179.36 25.54,185.93 23.39,188.48 C21.24,191.03 5.07,192.24 2.19,187.05 L2.3,184.12 C6.3,188.4 20.78,187.31 22.92,184.77 Z" id="Shape"></path>
                    <path d="M0.21,166.46 C1.00453322,167.969119 1.67345974,169.541097 2.21,171.16 L2.12,173.31 C1.70070508,172.239726 1.22674815,171.19168 0.7,170.17 C0.259481642,168.944052 0.0822974448,167.639022 0.18,166.34 L0.21,166.46 Z" id="Shape"></path>
                    <path d="M22.57,169.78 C22.029015,168.574985 21.5680164,167.335634 21.19,166.07 C21.19,166.07 23.78,166.78 28.12,162.02 C31.28,158.55 31.71,151.8 31.45,147.36 C32.13,150.01 32.94,160.97 28.6,165.73 C25.74,168.85 23.65,169.62 22.57,169.78 Z" id="Shape"></path>
                    <path d="M31.88,135.98 C31.4913875,139.002093 31.2710476,142.043451 31.22,145.09 C31.160438,144.605499 31.0736338,144.124738 30.96,143.65 C30.29,141 31.4,132.27 31.4,132.27 C31.4,132.27 31.49,126.11 32.79,124.16 C34.09,122.21 37.15,110.93 37.15,110.93 C37.15,110.93 37.3,107.09 39.53,105.17 C41.76,103.25 43.45,95.46 43.45,95.46 C44.7831914,93.5479662 45.4154691,91.2343243 45.24,88.91 C44.93,85.05 48.16,81.01 48.16,81.01 L54.03,64.61 L59.43,52.34 L61.92,59.68 C61.92,59.68 61.92,60.58 61.92,62.02 L59.92,56.02 L54.52,68.28 L48.65,84.69 C48.65,84.69 45.42,88.69 45.73,92.59 C45.9104739,94.914802 45.2777436,97.2301001 43.94,99.14 C43.94,99.14 42.25,106.93 40.02,108.84 C37.79,110.75 37.65,114.6 37.65,114.6 C37.65,114.6 34.59,125.88 33.29,127.84 C31.99,129.8 31.88,135.98 31.88,135.98 Z" id="Shape"></path>
                </g>
                <path d="M138.85,492.56 L139.79,498.22 L139.63,500.72 L139.51,502.56 L145.9,503.47 L146.67,502.17 C148.09,499.82 151.03,495.03 151.96,494.31 C153.18,493.36 155.9,477.83 153.32,478.65 C151.746722,479.191949 150.429068,480.29593 149.62,481.75 C149.62,481.75 136.96,482.71 138.85,492.56 Z" id="Shape" fill="#FFCDD3"></path>
                <path d="M139.51,502.56 L145.9,503.47 L146.67,502.17 C144.970905,500.094851 142.05024,499.494028 139.67,500.73 L139.51,502.56 Z" id="Shape" fill="#000000" opacity="0.1"></path>
                <path d="M137.77,505.54 L146.16,507.83 L146.38,506.57 L146.99,503.2 C146.102472,501.925002 144.742786,501.056951 143.212672,500.788477 C141.682558,500.520003 140.108573,500.873312 138.84,501.77 L138.36,503.48 L137.77,505.54 Z" id="Shape" fill="#DCE6F2"></path>
                <path d="M275.31,498.46 L284.15,503.66 C284.15,503.66 284.52,502.95 285.04,501.98 C285.97,500.21 287.35,497.55 287.74,496.59 C288.33,495.12 292.17,493.37 292.17,493.37 C301.98,484.7 291.01,476.51 291.01,476.51 C285.51,464.28 278.25,480.09 278.25,480.09 C278.25,480.09 277,488.52 277.63,489.09 C278.26,489.66 278.17,492 278.17,492 C277.238086,493.624882 276.442043,495.323997 275.79,497.08 C275.48,497.91 275.31,498.46 275.31,498.46 Z" id="Shape" fill="#FFCDD3"></path>
                <path d="M275.31,498.46 L284.15,503.66 C284.15,503.66 284.52,502.95 285.04,501.98 C283.8,500.87 279.42,496.98 277.93,497.14 C277.218449,497.211312 276.501551,497.211312 275.79,497.14 C275.48,497.91 275.31,498.46 275.31,498.46 Z" id="Shape" fill="#000000" opacity="0.1"></path>
                <path d="M274.28,501.13 L284.28,506.52 L284.56,504.34 L284.76,502.84 C284.76,502.84 279.08,497.58 277.34,497.7 C276.452589,497.789174 275.557018,497.752139 274.68,497.59 L274.5,499.41 L274.28,501.13 Z" id="Shape" fill="#DCE6F2"></path>
                <path d="M162.02,530.8 C162.02,530.8 206.09,537.5 197.92,534.5 C192.23,532.4 190.08,528.65 189.76,524.57 C189.650369,521.069257 190.3341,517.589067 191.76,514.39 C192.917664,511.640492 194.348155,509.014016 196.03,506.55 C196.03,506.55 162.91,486.64 169.03,503.82 C169.975724,506.418885 170.51866,509.147054 170.64,511.91 C170.736103,514.652397 170.33636,517.389621 169.46,519.99 C168.022967,524.209803 165.448297,527.950688 162.02,530.8 Z" id="Shape" fill="#FFCDD3"></path>
                <path d="M169.07,503.82 C170.015724,506.418885 170.55866,509.147054 170.68,511.91 C173.76,514.7 177.26,514.66 181.75,514.83 C185.2,514.97 188.98,515.95 191.75,514.39 C192.907664,511.640492 194.338155,509.014016 196.02,506.55 C196.02,506.55 162.95,486.64 169.07,503.82 Z" id="Shape" fill="#000000" opacity="0.1"></path>
                <circle id="Oval" fill="#FFCDD3" cx="183.01" cy="497.73" r="18.31"></circle>
                <path d="M162.02,530.8 C162.02,530.8 206.09,537.5 197.92,534.5 C192.23,532.4 190.08,528.65 189.76,524.57 C187.65,522.1 183.29,520.21 180.48,519.18 C177.921548,518.216432 175.128693,518.062825 172.48,518.74 C171.423624,519.005826 170.412591,519.42709 169.48,519.99 C168.037408,524.212139 165.455646,527.953271 162.02,530.8 Z" id="Shape" fill="#000000" opacity="0.1"></path>
                <path d="M137.77,505.54 L146.16,507.83 L146.38,506.57 C144.629092,503.959374 141.431195,502.724186 138.38,503.48 L137.77,505.54 Z" id="Shape" fill="#000000" opacity="0.1"></path>
                <path d="M274.28,501.13 L284.28,506.52 L284.56,504.34 C281.318616,502.465859 277.942689,500.834718 274.46,499.46 L274.28,501.13 Z" id="Shape" fill="#000000" opacity="0.1"></path>
                <path d="M140.22,641.64 C157.22,645.01 181.52,649.47 185.43,648.44 C188.68,647.59 198.93,648.09 207.84,648.74 C207.94,644.26 207.98,641.3 207.98,641.3 L141.81,631.82 C141.579864,635.13489 141.047656,638.421857 140.22,641.64 Z" id="Shape" fill="#000000" opacity="0.1"></path>
                <path d="M123.29,636.96 C123.29,636.96 179.35,648.82 185.48,647.21 C191.61,645.6 222.63,648.79 222.63,648.79 C236.26,658.71 230.95,644.65 230.95,644.65 C230.95,644.65 232.46,637.47 230.95,631.56 C229.98288,627.231097 229.37746,622.829259 229.14,618.4 C229.14,618.4 229.81,609.18 228.2,606.97 C226.59,604.76 225.2,589.29 225.2,589.29 C225.2,589.29 224.07,578.78 224.31,576.48 C224.55,574.18 224.19,567.69 224.19,567.69 L222.6,556.85 C234.19,555.76 270.08,535.58 270.08,535.58 C272.08,528.42 285.77,512 285.77,512 C286.015624,510.5849 286.431999,509.20482 287.01,507.89 C288.01,505.47 274.38,500.02 274.38,500.02 C274.38,500.02 263.57,512.23 261.33,515.53 C259.09,518.83 251.42,524.85 251.42,524.85 C250.277897,524.690936 249.114504,524.79701 248.02,525.16 L247.84,525.16 C245.340809,526.045722 242.983019,527.288614 240.84,528.85 C237.375879,528.633858 233.96303,529.770279 231.32,532.02 C231.32,532.02 225.05,530.86 223.94,531.89 C222.83,532.92 217.48,531.64 217.48,531.64 C217.48,531.64 212.48,520.06 208.87,523.23 C205.26,526.4 190.2,525.67 190.2,525.67 C188.31,522.93 183.51,520.84 180.51,519.74 C177.952636,518.771281 175.158177,518.617586 172.51,519.3 C171.360894,519.582633 170.268516,520.059491 169.28,520.71 L159.84,529.27 C159.84,529.27 157.35,525.79 157.69,525.03 C158.03,524.27 154.69,523.53 154.69,523.53 C154.69,523.53 150.28,521.97 148.61,521.45 C146.94,520.93 145.31,522.69 145.17,522.85 C145.933457,520.691956 146.273006,518.40679 146.17,516.12 C145.82,513.18 148.22,510.65 148.22,510.65 C143.35,497.22 130.78,507.83 130.78,507.83 C130.78,507.83 129.11,515 130.24,517.83 C131.37,520.66 128.68,526.39 128.92,527.94 C129.16,529.49 128.15,532.07 128.04,534.99 C127.93,537.91 129.25,543.51 130.04,545.99 C130.83,548.47 138.04,554.31 138.04,554.31 C138.04,554.31 138.17,563.09 141.2,568.31 C144.23,573.53 141.57,590.81 141.57,590.81 C141.57,590.81 137.97,604.22 133.96,608.38 C129.95,612.54 123.29,636.96 123.29,636.96 Z" id="Shape" fill="#656691"></path>
                <path d="M209.45,538.94 C209.45,538.94 211.34,533.94 212.89,533.53 C214.443712,533.025394 215.960665,532.413935 217.43,531.7 L216.51,529.77 C216.51,529.77 210.67,531.14 209.69,532.77 C208.71,534.4 209.45,538.94 209.45,538.94 Z" id="Shape" fill="#000000" opacity="0.1"></path>
                <path d="M240.79,528.91 C241.04,530.46 254.67,532.37 254.67,532.37 L248.02,525.16 L247.85,525.16 C245.3264,526.059055 242.947887,527.32243 240.79,528.91 Z" id="Shape" fill="#000000" opacity="0.1"></path>
                <circle id="Oval" fill="#575988" cx="281.2" cy="509.32" r="1.23"></circle>
                <circle id="Oval" fill="#575988" cx="279.53" cy="511.72" r="1.23"></circle>
                <circle id="Oval" fill="#575988" cx="277.9" cy="513.93" r="1.23"></circle>
                <circle id="Oval" fill="#575988" cx="276.2" cy="516.33" r="1.23"></circle>
                <circle id="Oval" fill="#575988" cx="131.25" cy="510.62" r="1"></circle>
                <circle id="Oval" fill="#575988" cx="131.01" cy="512.88" r="1"></circle>
                <circle id="Oval" fill="#575988" cx="130.78" cy="515.14" r="1"></circle>
                <path d="M207.77,580.61 C207.92,580.44 171.57,622.88 145.63,596.55 C145.63,596.55 187.93,603.95 207.77,580.61 Z" id="Shape" fill="#000000" opacity="0.1"></path>
                <path d="M226.81,604.14 C226.81,604.14 206.04,603.91 203.64,609.79 L203.4,616 C204.575654,616.709145 206.032859,616.765772 207.26,616.15 C209.4,615.1 222.18,609.21 226.49,612.45 L226.81,604.14 Z" id="Shape" fill="#000000" opacity="0.1"></path>
                <path d="M226.42,604.12 C226.42,604.12 206.57,603.9 204.27,609.51 L204.04,615.43 C205.163121,616.111329 206.558482,616.16427 207.73,615.57 C209.73,614.57 222,608.96 226.12,612.04 L226.42,604.12 Z" id="Shape" fill="#656691"></path>
                <path d="M217.22,558.66 C214.908459,563.48064 212.031573,568.009135 208.65,572.15 C204.954592,576.729122 200.536501,580.674329 195.57,583.83 C195.57,583.83 216.76,561.46 217.22,558.66 Z" id="Shape" fill="#000000" opacity="0.1"></path>
                <path d="M224.93,534.82 C224.93,534.82 220.93,549.63 211.78,554.36 L224.93,534.82 Z" id="Shape" fill="#000000" opacity="0.1"></path>
                <path d="M230.18,536.53 C230.28,536.26 232.8,548.47 217.97,554.6 C217.97,554.6 224.24,552.73 230.18,536.53 Z" id="Shape" fill="#000000" opacity="0.1"></path>
                <path d="M139.99,523.03 C140.22,523.03 132.62,527.48 130.52,529.59 C130.57,529.59 135.62,522.55 139.99,523.03 Z" id="Shape" fill="#000000" opacity="0.1"></path>
                <path d="M187.32,514.51 C187.132433,515.480352 186.586148,516.344411 185.79,516.93 C185.242758,517.169748 184.64637,517.276001 184.05,517.24 C178.46,517.38 172.64,517.4 167.57,515.05 C166.621287,514.673259 165.779875,514.068817 165.12,513.29 C164.24,512.13 164.12,510.6 163.81,509.18 C163.19,506.42 161.74,503.93 160.73,501.28 C159.029196,496.818474 158.589801,491.974752 159.46,487.28 C159.660392,485.844744 160.190962,484.475531 161.01,483.28 C162.57,481.23 165.3,480.48 167.32,478.87 C169.34,477.26 170.7,474.74 173.04,473.56 C175.14,472.5 177.65,472.73 179.96,473.22 C184.494539,474.170384 188.805368,475.979575 192.66,478.55 C193.95,479.42 195.37,480.41 196.91,480.18 C198.230057,479.813628 199.38219,479.000773 200.17,477.88 C201.160321,480.422934 201.523898,483.166907 201.23,485.88 C201.159901,486.276929 201.159901,486.683071 201.23,487.08 C201.400797,487.568436 201.673493,488.014975 202.03,488.39 C203.34,490.04 204.11,492.6 202.69,494.16 C202.07,494.84 201.14,495.16 200.54,495.89 C199.46,497.13 199.73,498.99 199.69,500.64 C199.72629,501.213588 199.563839,501.782163 199.23,502.25 C198.599,502.78428 197.736675,502.954476 196.95,502.7 C196.178685,502.437153 195.363238,502.328427 194.55,502.38 C193.682332,502.629512 192.924592,503.165217 192.4,503.9 C189.69,507.04 188.57,510.61 187.32,514.51 Z" id="Shape" fill="#2D293D"></path>
                <g id="Group" opacity="0.1" transform="translate(164.000000, 477.000000)" fill="#000000">
                    <path d="M0.57,34.85 C1.22642319,35.6349297 2.06860569,36.2433636 3.02,36.62 C8.09,38.97 13.91,38.94 19.5,38.81 C20.0974659,38.8476394 20.6950185,38.7377446 21.24,38.49 C22.0377265,37.9102843 22.5847878,37.0485733 22.77,36.08 C24,32.17 25.14,28.61 27.85,25.43 C28.3729659,24.6914822 29.1308976,24.1521169 30,23.9 C30.8130551,23.8534797 31.6275373,23.9620773 32.4,24.22 C33.1863071,24.4805267 34.0516398,24.3097374 34.68,23.77 C35.0146254,23.3063364 35.1772787,22.740586 35.14,22.17 C35.14,20.52 34.91,18.66 35.99,17.41 C36.59,16.72 37.52,16.41 38.14,15.69 C38.9600771,14.6512884 39.1479693,13.247849 38.63,12.03 C39.55,13.62 39.9,15.63 38.7,16.94 C38.08,17.62 37.16,17.94 36.55,18.67 C35.47,19.91 35.75,21.77 35.71,23.42 C35.7476264,23.9952482 35.5812017,24.5653413 35.24,25.03 C34.6098687,25.5660811 33.7465562,25.7364718 32.96,25.48 C32.1921334,25.2171818 31.3799592,25.1084388 30.57,25.16 C29.6972295,25.4100894 28.9355007,25.9496474 28.41,26.69 C25.71,29.86 24.57,33.43 23.33,37.33 C23.2947449,38.1387493 22.9219052,38.895637 22.3022037,39.4164905 C21.6825021,39.9373439 20.872756,40.1744087 20.07,40.07 C14.48,40.2 8.66,40.22 3.58,37.87 C2.63207519,37.4918186 1.79098871,36.8876095 1.13,36.11 C0.79993438,35.653409 0.552829635,35.1422746 0.4,34.6 C0.449713026,34.6878555 0.506571568,34.771471 0.57,34.85 Z" id="Shape"></path>
                    <path d="M37.19,9.56 C36.9419128,9.27119818 36.7639464,8.92895507 36.67,8.56 C36.5999007,8.1630712 36.5999007,7.7569288 36.67,7.36 C36.9115679,5.12215864 36.7076466,2.85863285 36.07,0.7 L36.17,0.59 C37.1687263,3.1308058 37.5359011,5.87603778 37.24,8.59 C37.1943907,8.91119054 37.1776571,9.23582224 37.19,9.56 Z" id="Shape"></path>
                </g>
                <path d="M190.15,525.73 C190.15,525.73 167.15,527.88 165.25,524.36" id="Shape" fill="#000000" opacity="0.1"></path>
                <path d="M146.08,514.56 C146.08,514.56 133.37,514.09 130.4,518.74" id="Shape" fill="#000000" opacity="0.1"></path>
            </g> 
        </g>
    </g>
</svg>